<svg width="274" height="115" viewBox="0 0 274 115" fill="none" xmlns="http://www.w3.org/2000/svg">
<path d="M237 2C241.038 1.92556 245.077 1.87126 249.115 1.83521C250.488 1.82017 251.86 1.79973 253.233 1.77368C255.211 1.73709 257.189 1.72183 259.168 1.70703C260.357 1.69132 261.545 1.67561 262.77 1.65942C267.289 2.13598 269.834 3.8336 273 7C273.215 9.91375 273.304 12.7336 273.306 15.6497C273.315 16.5459 273.323 17.4421 273.332 18.3656C273.356 21.344 273.365 24.3222 273.371 27.3008C273.38 29.3743 273.389 31.4478 273.398 33.5213C273.415 37.8802 273.423 42.239 273.426 46.5979C273.431 52.1548 273.468 57.711 273.514 63.2677C273.544 67.5583 273.551 71.8487 273.552 76.1394C273.556 78.1857 273.569 80.232 273.59 82.2782C273.702 94.1344 273.204 103.15 268 114C264.04 114 260.08 114 256 114C257.134 111.165 258.299 108.342 259.562 105.562C262.175 99.0887 262.263 92.519 262.562 85.625C262.627 84.2347 262.627 84.2347 262.693 82.8164C262.799 80.5444 262.9 78.2722 263 76C257.39 76 251.78 76 246 76C246.062 77.2169 246.124 78.4338 246.188 79.6875C246.154 90.2751 242.624 99.626 238 109C233.71 109 229.42 109 225 109C225.706 107.675 225.706 107.675 226.426 106.324C235.136 89.674 236.107 74.0582 236.316 55.5156C236.337 53.9634 236.358 52.4111 236.379 50.8588C236.434 46.8148 236.484 42.7708 236.532 38.7267C236.583 34.5834 236.638 30.4401 236.693 26.2969C236.8 18.198 236.902 10.099 237 2Z" fill="black"/>
<path d="M207 0C210.63 0 214.26 0 218 0C218 2.31 218 4.62 218 7C222.29 7 226.58 7 231 7C231.099 13.2988 231.172 19.5971 231.22 25.8965C231.24 28.0382 231.267 30.1798 231.302 32.3213C231.35 35.4044 231.373 38.4869 231.391 41.5703C231.411 42.5237 231.432 43.477 231.453 44.4593C231.455 50.1692 230.868 53.4973 227 58C222.103 62.2868 218.308 62.5203 212.125 62.25C209.444 62.1675 206.763 62.085 204 62C204 72.23 204 82.46 204 93C207.96 91.35 211.92 89.7 216 88C216.66 88 217.32 88 218 88C219.238 84.2872 219.356 80.6869 219.562 76.8125C219.606 76.0629 219.649 75.3133 219.693 74.541C219.799 72.6942 219.9 70.8471 220 69C223.3 69 226.6 69 230 69C230.108 72.0426 230.188 75.0814 230.25 78.125C230.284 78.9809 230.317 79.8369 230.352 80.7188C230.456 87.5157 228.781 90.8633 224.236 95.9897C221.63 98.3325 219.223 99.4504 215.992 100.797C214.841 101.28 213.69 101.764 212.504 102.262C210.708 102.998 210.708 102.998 208.875 103.75C207.67 104.257 206.464 104.763 205.223 105.285C196.301 109 196.301 109 194 109C194 75.67 194 42.34 194 8C198.29 8 202.58 8 207 8C207 5.36 207 2.72 207 0Z" fill="black"/>
<path d="M151 0C154.3 0 157.6 0 161 0C161 3.96 161 7.92 161 12C167.6 12 174.2 12 181 12C181.091 22.302 181.164 32.6038 181.207 42.9061C181.228 47.6914 181.256 52.4764 181.302 57.2615C181.346 61.891 181.369 66.5203 181.38 71.1501C181.387 72.9045 181.401 74.6589 181.423 76.4132C181.578 89.4503 181.454 103.266 173 114C169.766 114.586 169.766 114.586 166.25 114.375C165.08 114.321 163.909 114.267 162.703 114.211C161.811 114.141 160.919 114.072 160 114C160.471 113.273 160.941 112.546 161.426 111.797C162.048 110.791 162.671 109.786 163.312 108.75C163.927 107.775 164.542 106.801 165.176 105.797C170.41 95.9122 170.465 84.8581 170.512 73.9531C170.529 72.4457 170.547 70.9383 170.566 69.4308C170.613 65.5052 170.643 61.5796 170.67 57.6538C170.7 53.6311 170.746 49.6085 170.791 45.5859C170.877 37.7241 170.944 29.8622 171 22C167.7 22 164.4 22 161 22C161.016 23.1676 161.031 24.3351 161.048 25.5381C161.103 29.9739 161.137 34.4097 161.165 38.8457C161.18 40.7461 161.2 42.6466 161.226 44.5469C161.488 63.9006 160.118 82.2158 152 100C151.582 100.986 151.165 101.972 150.734 102.988C149.361 105.649 148.428 107.24 146 109C141.568 109.725 137.446 109.534 133 109C133.654 108.018 133.654 108.018 134.32 107.016C136.263 104.039 138.139 101.029 140 98C140.548 97.1325 141.096 96.2649 141.66 95.3711C153.804 74.0348 150.809 45.6969 151 22C148.69 22 146.38 22 144 22C144 18.7 144 15.4 144 12C146.31 12 148.62 12 151 12C151 8.04 151 4.08 151 0Z" fill="black"/>
<path d="M114 0C117.3 0 120.6 0 124 0C124 2.64 124 5.28 124 8C129.28 8 134.56 8 140 8C140 11.3 140 14.6 140 18C134.72 18 129.44 18 124 18C124 20.64 124 23.28 124 26C124.808 25.9536 125.616 25.9072 126.449 25.8594C135.255 25.5619 135.255 25.5619 139.188 27.875C141.823 30.965 142.123 32.5944 142.098 36.5703C142.094 37.4662 142.091 38.3621 142.088 39.2852C142.075 40.6909 142.075 40.6909 142.062 42.125C142.058 43.0699 142.053 44.0148 142.049 44.9883C142.037 47.3255 142.019 49.6628 142 52C138.37 52 134.74 52 131 52C131 46.72 131 41.44 131 36C123.08 36 115.16 36 107 36C107 40.95 107 45.9 107 51C103.7 51 100.4 51 97 51C97 42.75 97 34.5 97 26C102.61 26 108.22 26 114 26C114 23.36 114 20.72 114 18C108.39 18 102.78 18 97 18C97 14.37 97 10.74 97 7C102.61 7 108.22 7 114 7C114 4.69 114 2.38 114 0Z" fill="black"/>
<path d="M111 45C116.61 45 122.22 45 128 45C128 51.27 128 57.54 128 64C129.753 63.34 131.506 62.68 133.312 62C136.46 60.8149 138.625 60 142 60C142 63.63 142 67.26 142 71C132.375 74.875 132.375 74.875 129 76C128.915 76.6287 128.831 77.2573 128.744 77.905C124.953 105.047 124.953 105.047 116 114C112.961 114.195 112.961 114.195 109.375 114.125C108.186 114.107 106.998 114.089 105.773 114.07C104.858 114.047 103.943 114.024 103 114C104.333 111.118 105.864 108.823 107.875 106.375C113.656 98.7465 115.65 90.3421 117 81C115.808 81.4331 114.615 81.8663 113.387 82.3125C111.82 82.8752 110.254 83.4377 108.688 84C107.509 84.4293 107.509 84.4293 106.307 84.8672C105.549 85.1379 104.792 85.4086 104.012 85.6875C103.315 85.9389 102.619 86.1902 101.901 86.4492C100 87 100 87 97 87C97 83.37 97 79.74 97 76C100.124 74.8294 103.249 73.6634 106.375 72.5C107.264 72.1661 108.154 71.8323 109.07 71.4883C109.921 71.1725 110.772 70.8566 111.648 70.5312C112.827 70.0914 112.827 70.0914 114.029 69.6426C116 69 116 69 118 69C118 64.38 118 59.76 118 55C115.69 55 113.38 55 111 55C111 51.7 111 48.4 111 45Z" fill="black"/>
<path d="M52 0C55.3 0 58.6 0 62 0C62.0698 11.4927 62.123 22.9854 62.1554 34.4783C62.171 39.8161 62.1921 45.1539 62.2263 50.4917C62.2592 55.6529 62.2769 60.814 62.2846 65.9753C62.2901 67.9343 62.3009 69.8933 62.3172 71.8521C62.4369 86.8313 60.5631 99.6588 56 114C52.37 114 48.74 114 45 114C45.4558 110.445 46.2266 107.233 47.4375 103.875C51.5262 91.7773 51.3363 79.41 51.4141 66.7969C51.4328 64.8635 51.4524 62.93 51.4727 60.9966C51.5237 55.9465 51.5635 50.8964 51.6009 45.8461C51.6411 40.6773 51.6921 35.5086 51.7422 30.3398C51.8386 20.2266 51.9231 10.1134 52 0Z" fill="black"/>
<path d="M89 5C89 8.96 89 12.92 89 17C86.03 17.99 83.06 18.98 80 20C79.9246 24.9764 79.8708 29.9524 79.8352 34.9292C79.8203 36.6145 79.8 38.2997 79.7737 39.9849C79.5408 55.2998 81.5518 69.0796 85.9375 83.8125C86.1955 84.6983 86.4534 85.5842 86.7192 86.4968C88.5684 92.764 90.6353 98.9063 93 105C89.04 105 85.08 105 81 105C79.8888 101.919 78.786 98.8355 77.6875 95.75C77.2244 94.47 77.2244 94.47 76.7519 93.1641C73.0647 82.7622 70.595 72.336 69.3125 61.375C69.1851 60.2956 69.0577 59.2161 68.9265 58.104C67.359 43.1231 67.7356 28.0397 68 13C71.1225 11.6609 74.2484 10.3297 77.375 9C78.2644 8.61844 79.1539 8.23687 80.0703 7.84375C80.9211 7.48281 81.7719 7.12187 82.6484 6.75C83.4339 6.41484 84.2195 6.07969 85.0288 5.73438C87 5 87 5 89 5Z" fill="black"/>
<path d="M26 12C32.6 12 39.2 12 46 12C46.7385 82.3658 46.7385 82.3658 32 105C28.37 105 24.74 105 21 105C22.4667 100.569 23.9399 96.1447 25.5 91.7461C32.0636 73.0377 33.9329 55.0269 34.5625 35.25C34.6057 33.9687 34.6489 32.6873 34.6934 31.3672C34.7982 28.2449 34.9004 25.1225 35 22C32.03 22 29.06 22 26 22C26 18.7 26 15.4 26 12Z" fill="black"/>
<path d="M14 49C17.3 49 20.6 49 24 49C24.8596 64.9738 21.0425 79.4158 16.9375 94.75C16.6924 95.6666 16.4473 96.5832 16.1948 97.5276C14.8062 102.558 13.1827 107.259 11 112C7.37 112 3.74 112 0 112C0.511118 107.911 1.57854 104.374 3.05078 100.539C9.29271 83.8425 12.1707 66.6897 14 49Z" fill="black"/>
<path d="M6 1C9.63 1 13.26 1 17 1C19.0694 7.62399 20.327 14.3766 21.625 21.1875C21.9692 22.95 21.9692 22.95 22.3203 24.748C22.5369 25.8766 22.7534 27.0052 22.9766 28.168C23.1733 29.1917 23.37 30.2155 23.5728 31.2703C24 34 24 34 24 38C20.37 38 16.74 38 13 38C12.7352 36.5852 12.7352 36.5852 12.4651 35.1418C11.8075 31.6288 11.1495 28.1158 10.4915 24.6028C10.2072 23.0849 9.92298 21.567 9.63892 20.0491C9.22962 17.8621 8.81992 15.6752 8.41016 13.4883C8.28407 12.8141 8.15799 12.14 8.02809 11.4454C7.37432 7.95848 6.6958 4.47899 6 1Z" fill="black"/>
<path d="M247 44C252.28 44 257.56 44 263 44C263 51.26 263 58.52 263 66C257.72 66 252.44 66 247 66C247 58.74 247 51.48 247 44Z" fill="#F9F8F5"/>
<path d="M247 12C252.28 12 257.56 12 263 12C263 18.93 263 25.86 263 33C257.72 33 252.44 33 247 33C247 26.07 247 19.14 247 12Z" fill="#F8F6F1"/>
<path d="M204 39C209.61 39 215.22 39 221 39C221.365 48.3768 221.365 48.3768 219.938 50.8125C216.938 52.6512 214.282 52.283 210.812 52.1875C209.54 52.1604 208.268 52.1334 206.957 52.1055C205.981 52.0707 205.005 52.0359 204 52C204 47.71 204 43.42 204 39Z" fill="#F7F5EF"/>
<path d="M204 18C209.61 18 215.22 18 221 18C221 21.63 221 25.26 221 29C215.39 29 209.78 29 204 29C204 25.37 204 21.74 204 18Z" fill="#F8F5F0"/>
</svg>
