<?xml version="1.0" encoding="UTF-8"?>
<svg width="2255px" height="741px" viewBox="0 0 2255 741" version="1.1" xmlns="http://www.w3.org/2000/svg" xmlns:xlink="http://www.w3.org/1999/xlink">
    <title>编组</title>
    <defs>
        <polygon id="path-1" points="0 0 549.9526 0 549.9526 602.5909 0 602.5909"></polygon>
        <polygon id="path-3" points="0 0 487.951719 0 487.951719 190.70265 0 190.70265"></polygon>
    </defs>
    <g id="官网" stroke="none" stroke-width="1" fill="none" fill-rule="evenodd">
        <g id="编组">
            <path d="M1604.0677,137.4878 C1641.6547,137.4878 1672.1957,167.6528 1672.8027,205.0948 L1672.8117,205.8388 L1672.8117,205.8388 L1672.8117,412.4638 C1672.8117,564.3298 1549.7007,687.4408 1397.8357,687.4408 C1245.9697,687.4408 1122.8587,564.3298 1122.8587,412.4638 L1122.8587,205.8388 C1123.0717,168.0528 1153.7677,137.4878 1191.6027,137.4878 C1229.5697,137.4878 1260.3467,168.2658 1260.3467,206.2318 L1260.3437,205.8388 L1260.3467,205.8388 L1260.3467,412.4638 C1260.3467,488.3968 1321.9027,549.9528 1397.8357,549.9528 C1473.7677,549.9528 1535.3237,488.3968 1535.3237,412.4638 L1535.3237,205.8388 C1535.5367,168.0528 1566.2327,137.4878 1604.0677,137.4878" id="Fill-1" fill="#BE1C21"></path>
            <g transform="translate(1705.023400, 137.488100)">
                <mask id="mask-2" fill="white">
                    <use xlink:href="#path-1"></use>
                </mask>
                <g id="Clip-4"></g>
                <path d="M0,68.351 L0,68.351 L0.009,67.607 C0.616,30.165 31.157,0 68.744,0 C106.579,0 137.276,30.565 137.487,68.351 L137.488,68.351 L137.488,137.488 C137.488,213.421 199.044,274.976 274.976,274.976 C350.909,274.976 412.465,213.421 412.465,137.488 L412.465,68.351 C412.677,30.565 443.374,0 481.209,0 C518.795,0 549.337,30.165 549.944,67.607 L549.953,68.351 L549.953,68.351 L549.953,533.454 L549.953,533.454 L549.953,533.847 C549.953,571.433 519.788,601.975 482.346,602.582 L481.209,602.591 C443.242,602.591 412.465,571.813 412.465,533.847 C412.465,533.716 412.465,533.585 412.466,533.454 L412.465,533.454 L412.465,375.677 C372.02,399.074 325.062,412.464 274.976,412.464 C124.63,412.464 2.465,291.803 0.037,142.035 L0,137.488 L0,68.351 Z" id="Fill-3" fill="#BE1C21" mask="url(#mask-2)"></path>
            </g>
            <path d="M814.8854,274.976 C738.9524,274.976 677.3974,336.532 677.3974,412.464 C677.3974,488.397 738.9524,549.952 814.8854,549.952 C890.8184,549.952 952.3734,488.397 952.3734,412.464 C952.3734,336.532 890.8184,274.976 814.8854,274.976 M608.6534,0 C646.6194,0 677.3974,30.777 677.3974,68.744 L677.3944,68.351 L677.3974,68.351 L677.3974,174.275 C717.8424,150.878 764.8004,137.488 814.8854,137.488 C966.7504,137.488 1089.8614,260.599 1089.8614,412.464 C1089.8614,564.33 966.7504,687.441 814.8854,687.441 C663.0204,687.441 539.9094,564.33 539.9094,412.464 L539.9094,68.351 C540.1214,30.565 570.8174,0 608.6534,0" id="Fill-5" fill="#BE1C21"></path>
            <path d="M255.9334,137.4878 C298.3024,137.4878 338.4334,147.0698 374.2774,164.1858 L374.0924,164.3718 C395.0094,176.1598 409.1344,198.5808 409.1344,224.3018 C409.1344,262.2678 378.3564,293.0458 340.3904,293.0458 C329.7584,293.0458 319.6904,290.6318 310.7034,286.3228 C293.9254,279.0228 275.4024,274.9758 255.9334,274.9758 C213.4204,274.9758 175.4134,294.2718 150.1934,324.5828 L150.1744,324.5348 C137.5734,338.9418 119.0554,348.0408 98.4114,348.0408 C60.4444,348.0408 29.6674,317.2638 29.6674,279.2968 C29.6674,261.5238 36.4114,245.3268 47.4804,233.1248 L47.1644,233.4928 C97.5934,174.7218 172.4154,137.4878 255.9334,137.4878 M440.1674,436.0338 C478.1344,436.0338 508.9114,466.8118 508.9114,504.7778 C508.9114,516.9898 505.7274,528.4578 500.1444,538.3968 C500.2354,538.4108 500.3274,538.4238 500.4204,538.4368 C454.7344,626.9338 362.3994,687.4408 255.9334,687.4408 C150.5284,687.4408 58.9754,628.1338 12.8224,541.0698 C6.5594,530.7058 2.9554,518.5558 2.9554,505.5638 C2.9554,467.5968 33.7324,436.8198 71.6994,436.8198 C97.0594,436.8198 119.2114,450.5518 131.1264,470.9858 L131.3504,470.6848 C153.2654,517.5138 200.8114,549.9528 255.9334,549.9528 C308.1624,549.9528 353.5904,520.8288 376.8624,477.9358 C387.3174,453.3068 411.7254,436.0338 440.1674,436.0338" id="Fill-7" fill="#157D3B"></path>
            <g transform="translate(0.000000, 268.263641)">
                <mask id="mask-4" fill="white">
                    <use xlink:href="#path-3"></use>
                </mask>
                <g id="Clip-10"></g>
                <path d="M0.7999,184.872059 C2.3329,195.855059 6.2659,187.324059 16.2289,177.631059 C46.3719,148.306059 87.5759,136.003059 166.6769,167.940059 C335.0609,235.925059 454.0579,132.976059 472.9489,101.477059 C476.6099,95.3720592 478.2929,92.1550592 483.9949,82.5460592 C497.1979,60.2960592 475.1689,34.1030592 450.2339,15.8960592 C425.2979,-2.31094083 439.5359,-5.54494083 423.8129,9.67005917 C408.0909,24.8840592 422.1269,0.0100591738 379.8519,38.1330592 C302.0399,108.305059 183.1399,95.8370592 120.9899,94.9420592 C38.4169,93.7510592 -2.9551,137.691059 0.1639,178.684059 C0.1639,178.684059 0.0349,179.389059 0.7999,184.872059" id="Fill-9" fill="#C9161E" mask="url(#mask-4)"></path>
            </g>
            <path d="M384.1573,301.7865 C380.0813,308.0715 394.4183,302.4105 407.8533,294.0305 C421.2883,285.6505 431.4343,295.8245 423.5303,308.0475 C415.6263,320.2705 415.7403,329.1985 421.4723,334.8075 C427.2043,340.4155 453.4103,320.4525 460.5303,330.3745 C467.6513,340.2955 458.4823,368.0395 464.1943,375.8575 C467.3353,380.1565 478.2473,364.0725 484.2423,351.5415 C500.4843,317.5985 491.1763,296.1165 483.5793,272.0245 C475.9533,247.8385 494.6103,242.4575 507.5293,240.0975 C517.3553,238.3025 515.1423,230.5905 505.1103,229.3445 C495.0783,228.0985 483.5003,226.4325 470.7223,238.2675 C457.6043,250.4185 456.4623,260.1995 430.9243,267.5685 C405.3863,274.9375 397.5013,281.2125 384.1573,301.7865" id="Fill-11" fill="#157D3B"></path>
        </g>
    </g>
</svg>